<?xml version="1.0" standalone="no"?>
<svg version="1.0" xmlns="http://www.w3.org/2000/svg"
     width="500.000000pt" height="500.000000pt" viewBox="0 0 500.000000 500.000000"
     preserveAspectRatio="xMidYMid meet">

    <g transform="translate(0.000000,500.000000) scale(0.100000,-0.100000)"
       fill="#000000" stroke="none">
        <path d="M2390 4199 c-55 -25 -105 -71 -132 -123 -43 -83 -6 -205 77 -256 56
-34 145 -24 145 17 0 11 -12 12 -50 7 -44 -6 -54 -4 -85 20 -46 35 -65 74 -65
133 0 94 100 183 205 183 209 -1 288 -258 141 -459 -20 -27 -81 -84 -136 -126
-67 -51 -107 -89 -120 -115 -22 -44 -9 -41 -240 -60 -247 -20 -416 -65 -479
-127 -27 -27 -32 -38 -26 -61 27 -109 234 -169 672 -193 306 -17 658 8 806 57
98 32 125 65 102 121 -21 50 -64 59 -250 53 -88 -3 -225 -5 -305 -5 -134 0
-149 2 -195 25 -52 26 -82 67 -71 97 6 14 32 15 234 10 326 -9 542 -38 675
-93 119 -48 136 -93 65 -170 -86 -94 -314 -178 -593 -220 -159 -24 -496 -24
-640 -1 -207 34 -330 75 -480 163 -117 69 -190 94 -272 94 -77 0 -117 -16
-165 -66 -49 -51 -75 -114 -89 -209 -17 -126 5 -239 72 -363 104 -195 280
-354 408 -369 44 -5 52 -10 75 -46 15 -22 25 -41 23 -43 -1 -2 -57 -15 -123
-29 -328 -69 -488 -167 -459 -282 11 -46 84 -107 171 -143 211 -88 533 -140
982 -160 508 -23 1068 31 1367 131 297 100 338 244 101 359 -80 39 -299 101
-404 115 -29 4 -52 10 -50 14 2 3 24 49 50 101 94 189 131 379 129 652 -1 172
-10 236 -31 223 -8 -5 -9 -50 -4 -138 13 -262 -33 -523 -125 -711 -106 -215
-254 -341 -481 -407 -107 -31 -358 -38 -502 -14 -209 34 -376 108 -497 221
-56 52 -138 152 -130 157 2 2 38 19 79 39 163 79 242 207 205 334 -27 92 -95
120 -170 69 -20 -15 -38 -25 -39 -23 -1 2 -8 16 -16 32 -18 35 -65 66 -101 66
-31 0 -84 -34 -112 -72 -46 -62 -30 -185 41 -322 20 -39 39 -75 41 -80 6 -14
-62 5 -113 33 -60 32 -180 149 -230 225 -58 88 -104 195 -118 273 -23 139 21
301 99 360 78 60 215 38 370 -57 140 -86 285 -135 485 -164 330 -48 709 -19
992 75 218 72 336 165 336 264 0 129 -291 207 -828 223 l-224 7 22 28 c12 15
56 54 98 86 103 78 157 139 195 219 29 61 32 76 32 162 0 106 -16 150 -77 210
-69 70 -178 90 -268 49z m-52 -811 c7 -7 12 -22 12 -35 0 -34 55 -89 108 -110
51 -19 179 -23 497 -13 130 4 166 2 190 -10 89 -45 -38 -101 -300 -132 -133
-16 -581 -15 -720 1 -230 26 -395 70 -442 117 -28 28 -29 38 -4 63 54 54 288
104 581 124 25 2 50 4 56 5 5 1 15 -3 22 -10z m-638 -777 c19 -18 32 -44 36
-70 4 -23 11 -41 15 -41 5 0 29 21 53 46 35 36 50 45 72 42 42 -5 68 -48 68
-111 0 -65 -29 -123 -86 -171 -46 -40 -151 -96 -179 -96 -21 0 -68 78 -104
174 -42 113 -30 200 34 239 38 24 59 21 91 -12z"/>
        <path d="M2323 1343 c-30 -6 -73 -58 -75 -91 -6 -117 40 -172 134 -159 60 8
90 42 96 110 8 105 -52 160 -155 140z m86 -59 c28 -36 29 -106 1 -134 -25 -25
-72 -26 -92 -2 -23 26 -30 70 -18 108 20 58 74 72 109 28z"/>
        <path d="M2998 1335 c-53 -29 -58 -186 -8 -227 53 -43 116 -11 131 66 14 74
-7 146 -47 165 -32 14 -43 14 -76 -4z m72 -51 c23 -61 5 -154 -29 -154 -27 0
-41 29 -41 84 0 61 15 96 40 96 13 0 24 -10 30 -26z"/>
        <path d="M3203 1335 c-26 -11 -33 -20 -33 -42 0 -16 7 -38 15 -50 14 -21 14
-24 -5 -43 -38 -38 -20 -95 35 -106 94 -17 152 53 90 110 -25 23 -25 23 -5 41
11 10 20 31 20 47 0 24 -6 32 -35 44 -41 17 -42 17 -82 -1z m72 -49 c0 -30
-31 -44 -51 -24 -24 24 -11 50 23 46 20 -2 28 -9 28 -22z m-3 -103 c25 -22 23
-41 -6 -54 -17 -8 -29 -8 -45 0 -24 13 -26 23 -11 52 13 23 37 24 62 2z"/>
        <path d="M1690 1215 c0 -118 1 -125 20 -125 18 0 20 8 22 98 l3 97 55 -97 c52
-92 57 -98 88 -98 l32 0 0 125 c0 118 -1 125 -20 125 -19 0 -20 -7 -20 -90 0
-49 -3 -90 -7 -90 -5 0 -30 41 -58 90 -47 84 -52 90 -82 90 l-33 0 0 -125z"/>
        <path d="M1980 1215 l0 -125 25 0 c24 0 25 3 25 55 l0 55 55 0 55 0 0 -55 c0
-48 2 -55 20 -55 19 0 20 7 20 125 0 117 -1 125 -19 125 -17 0 -20 -8 -23 -47
l-3 -48 -52 -3 -53 -3 0 50 c0 48 -2 51 -25 51 l-25 0 0 -125z"/>
        <path d="M2540 1215 c0 -118 1 -125 20 -125 19 0 20 7 20 102 0 56 3 99 6 96
3 -4 18 -48 33 -100 25 -82 31 -93 51 -93 20 0 27 12 54 92 17 50 34 95 38 98
3 4 4 -39 1 -94 l-6 -101 27 0 26 0 0 126 0 125 -37 -3 -36 -3 -33 -95 c-18
-55 -34 -89 -38 -80 -3 8 -17 52 -31 98 -26 82 -26 82 -60 82 l-35 0 0 -125z"/>
        <path d="M3272 998 c-7 -7 -12 -20 -12 -29 0 -10 -6 -20 -12 -22 -10 -4 -10
-6 0 -6 8 -1 12 -20 12 -61 0 -33 4 -60 10 -60 6 0 10 26 10 59 0 48 3 60 18
64 16 4 16 5 0 6 -26 2 -24 41 2 41 11 0 20 5 20 10 0 14 -33 13 -48 -2z"/>
        <path d="M1330 982 c-31 -25 -19 -59 26 -78 19 -8 38 -22 41 -31 9 -24 -25
-45 -61 -37 -19 4 -26 3 -22 -5 12 -18 71 -13 90 8 24 27 14 52 -31 76 -53 28
-52 58 2 65 30 4 35 7 22 13 -28 11 -43 9 -67 -11z"/>
        <path d="M2815 990 c-42 -16 -59 -61 -44 -115 6 -19 18 -39 29 -45 25 -13 77
-13 86 1 4 8 -3 9 -23 5 -46 -10 -78 20 -78 74 0 50 21 70 74 70 27 0 32 3 21
10 -18 12 -38 12 -65 0z"/>
        <path d="M1548 960 c-10 -11 -13 -20 -8 -20 6 0 10 -22 10 -48 0 -52 13 -72
45 -71 19 0 19 1 -2 9 -20 8 -23 17 -23 59 0 39 4 51 18 54 15 4 15 5 0 6 -9
0 -18 8 -20 16 -2 13 -6 12 -20 -5z"/>
        <path d="M1739 934 c-20 -24 -16 -84 6 -100 44 -32 95 -3 95 54 0 17 -7 38
-16 46 -20 21 -68 20 -85 0z m69 -6 c7 -7 12 -26 12 -43 0 -50 -33 -71 -64
-39 -31 30 -15 94 24 94 9 0 21 -5 28 -12z"/>
        <path d="M1970 885 c0 -78 16 -87 22 -12 5 56 1 77 -13 77 -5 0 -9 -29 -9 -65z"/>
        <path d="M2005 940 c-8 -13 5 -13 25 0 13 8 13 10 -2 10 -9 0 -20 -4 -23 -10z"/>
        <path d="M2176 928 c-35 -49 -7 -108 50 -108 19 0 34 5 34 11 0 6 -8 8 -20 4
-24 -8 -60 11 -60 30 0 11 12 15 45 15 48 0 56 11 35 51 -15 27 -64 25 -84 -3z
m64 8 c0 -2 3 -11 6 -20 5 -13 -1 -16 -30 -16 -38 0 -44 8 -24 28 11 11 48 17
48 8z"/>
        <path d="M2402 938 c-19 -19 -15 -26 29 -53 34 -22 39 -29 28 -41 -9 -11 -22
-14 -41 -10 -18 3 -27 2 -23 -4 7 -11 45 -13 69 -4 30 11 19 49 -20 67 -40 20
-41 42 -1 42 14 1 29 4 33 8 4 4 -8 7 -27 7 -19 0 -40 -5 -47 -12z"/>
        <path d="M3030 942 c0 -5 12 -7 26 -4 16 3 30 -1 35 -9 14 -22 11 -29 -15 -29
-13 0 -34 -9 -47 -19 -20 -16 -22 -23 -13 -38 13 -22 52 -29 68 -13 8 9 4 10
-16 5 -36 -9 -51 21 -22 42 28 20 49 12 49 -19 1 -15 4 -31 8 -35 5 -4 7 22 5
57 l-3 65 -37 3 c-21 2 -38 -1 -38 -6z"/>
        <path d="M3439 934 c-20 -24 -16 -84 6 -100 23 -17 71 -18 81 -3 4 8 -3 9 -24
5 -21 -5 -34 -2 -46 9 -26 26 -19 35 29 35 40 0 45 2 45 23 0 13 -5 28 -12 35
-17 17 -63 15 -79 -4z m69 -16 c3 -15 -4 -18 -32 -18 -38 0 -44 8 -24 28 17
17 52 11 56 -10z"/>
    </g>
</svg>

